# xmcd
#
# Track frame offsets:
#	150
#	19300
#	42060
#	64985
#	83400
#	107347
#	134032
#	149975
#	173872
#	199817
#	216562
#	240000
#
# Disc length: 3510 seconds
#
# Revision: 1
# Processed by: cddbd v1.5.2PL0 Copyright (c) Steve Scherf et al.
# Submitted via: audiograbber 1.83.01
#
DISCID=ae0db40c
DTITLE=Eldee Young and Ruben De Andrea - I thought about you ...
DYEAR=1994
DGENRE=Blues
TTITLE0=Nice And Easy
TTITLE1=The very Thought Of You
TTITLE2=Fools Rush In
TTITLE3=You Got To My Head
TTITLE4=I'm Confessing That I Love You
TTITLE5=I Can't Get Started With You
TTITLE6=I Thought About You
TTITLE7=I've Grown Accustom To Her Face
TTITLE8=Angel Eyes
TTITLE9=Everytime We Say Goodbye
TTITLE10=This Is All I Ask
TTITLE11=Out Love Is Here To Stay
EXTD=
EXTT0=
EXTT1=
EXTT2=
EXTT3=
EXTT4=
EXTT5=
EXTT6=
EXTT7=
EXTT8=
EXTT9=
EXTT10=
EXTT11=
PLAYORDER=
